<?xml version="1.0" standalone="no"?>
<!DOCTYPE svg PUBLIC "-//W3C//DTD SVG 20010904//EN"
 "http://www.w3.org/TR/2001/REC-SVG-20010904/DTD/svg10.dtd">
<svg version="1.0" xmlns="http://www.w3.org/2000/svg"
 width="2400.000000pt" height="2239.000000pt" viewBox="0 0 2400.000000 2239.000000"
 preserveAspectRatio="xMidYMid meet">

<g transform="translate(0.000000,2239.000000) scale(0.100000,-0.100000)"
fill="#000000" stroke="none">
<path d="M6410 22354 c-113 -49 -157 -175 -109 -317 29 -87 37 -97 131 -163
127 -90 222 -184 370 -364 337 -413 472 -632 515 -834 17 -82 11 -149 -18
-216 -38 -87 -92 -120 -194 -120 -53 0 -102 12 -263 64 -301 97 -322 101 -567
101 -115 0 -331 -6 -480 -12 -148 -7 -484 -17 -745 -23 -634 -13 -1033 -28
-1100 -41 -70 -14 -166 -60 -300 -143 -58 -36 -134 -76 -170 -88 -171 -57
-389 0 -753 198 -182 99 -242 140 -340 233 -106 101 -169 185 -227 306 -61
125 -91 240 -97 375 -9 179 12 274 107 481 93 201 112 298 71 365 -49 81 -221
102 -368 46 -221 -84 -383 -368 -478 -837 -54 -265 -68 -390 -68 -595 -1 -213
11 -310 62 -505 175 -671 715 -1226 1379 -1415 45 -13 82 -26 82 -29 -1 -3 -9
-44 -19 -91 -12 -61 -21 -85 -32 -84 -8 1 -54 14 -104 28 -240 71 -443 104
-680 113 -580 20 -1072 -172 -1576 -615 -323 -283 -469 -534 -429 -735 47
-238 254 -364 765 -466 548 -110 1117 -115 1724 -16 85 14 165 28 179 32 l25
6 -7 -169 c-7 -194 -35 -397 -71 -532 -47 -176 -87 -254 -376 -732 -309 -510
-403 -762 -402 -1070 1 -112 5 -152 27 -235 29 -112 94 -256 134 -298 39 -41
69 -54 198 -87 95 -25 136 -41 232 -97 242 -138 463 -228 677 -273 127 -27
398 -38 541 -21 213 25 316 53 509 139 351 156 435 167 526 64 23 -26 63 -94
90 -152 64 -137 160 -324 329 -645 75 -143 218 -420 317 -615 99 -195 314
-611 478 -925 164 -313 396 -761 515 -995 120 -234 277 -533 350 -665 154
-281 216 -408 275 -560 l43 -110 7 -310 c9 -343 9 -414 5 -690 -4 -223 5 -286
154 -1117 83 -456 129 -760 163 -1063 26 -229 25 -835 -1 -1050 -83 -694 -255
-1343 -630 -2384 -65 -180 -93 -229 -366 -646 -233 -354 -291 -452 -375 -628
-63 -132 -124 -292 -115 -300 3 -2 181 -46 395 -97 251 -59 397 -98 410 -110
17 -15 55 -19 240 -29 426 -22 657 -13 840 34 175 44 280 118 336 238 62 133
66 297 15 664 -29 212 -34 273 -32 418 1 155 4 175 25 223 32 72 92 121 202
167 125 53 165 84 197 153 46 102 42 249 -17 587 -29 164 -41 350 -41 614 0
521 37 824 200 1661 133 684 169 933 190 1322 19 359 9 544 -35 668 -9 25 -22
71 -30 103 l-14 59 47 -6 c206 -27 563 -34 772 -16 331 31 673 112 968 232 68
27 125 48 127 46 2 -1 33 -68 70 -148 145 -317 316 -626 700 -1270 367 -614
491 -835 644 -1140 154 -310 237 -505 322 -760 228 -684 258 -1301 97 -1945
-46 -186 -96 -317 -220 -580 -130 -274 -154 -338 -173 -450 -23 -138 -34 -183
-61 -235 -35 -72 -130 -194 -300 -387 -189 -214 -285 -341 -341 -449 -73 -141
-75 -128 15 -173 288 -144 562 -204 927 -204 238 1 369 15 778 84 380 64 488
96 572 171 46 40 59 65 85 168 28 108 45 139 124 230 84 96 113 154 128 259
20 144 -3 312 -102 730 -22 96 -39 174 -38 175 2 1 44 10 93 20 175 34 289
113 349 240 49 102 60 170 53 344 -6 171 -29 288 -112 587 -30 110 -194 756
-364 1435 -338 1348 -473 1871 -551 2140 -108 373 -192 670 -220 781 -33 129
-95 434 -105 518 l-7 54 63 -6 c324 -32 1009 -33 1299 -3 408 42 717 109 1085
236 291 101 609 236 780 330 168 94 237 123 297 128 82 6 129 -20 267 -152
138 -132 159 -148 410 -305 281 -177 399 -270 467 -371 47 -69 55 -102 64
-275 5 -100 15 -177 25 -204 33 -94 102 -149 170 -137 85 16 189 165 275 392
10 25 12 24 124 -83 63 -59 140 -124 172 -143 63 -38 174 -79 215 -80 l25 0
12 238 c7 130 15 281 19 335 l6 98 31 -7 c76 -16 169 -78 295 -198 141 -133
219 -189 299 -212 100 -29 165 -5 204 74 21 44 23 60 23 222 0 96 -4 239 -9
317 l-9 142 27 55 c21 42 58 84 147 168 66 62 127 113 137 113 40 0 249 -462
351 -778 131 -402 185 -755 185 -1202 0 -366 -28 -648 -105 -1045 -119 -616
-218 -848 -558 -1305 -73 -97 -137 -188 -142 -202 -18 -47 -10 -89 26 -143 19
-29 35 -60 35 -70 0 -10 -93 -127 -206 -261 l-205 -243 38 -23 c153 -93 427
-163 636 -163 37 0 67 -3 67 -6 0 -3 -119 -136 -265 -295 -146 -160 -270 -300
-274 -312 -4 -12 -18 -85 -31 -161 l-22 -140 -224 -292 c-128 -167 -224 -302
-224 -313 0 -52 330 -235 562 -311 177 -58 291 -75 513 -75 273 1 457 37 724
141 149 59 451 210 519 260 2 1 -10 40 -26 86 -77 216 -114 497 -94 697 14
144 41 241 95 351 37 77 59 103 218 266 216 221 240 260 247 400 5 111 -12
218 -74 474 -73 300 -85 367 -92 520 -24 488 72 1060 344 2048 65 236 104 328
313 744 204 405 263 557 296 753 31 184 3 320 -136 664 -50 124 -102 267 -115
318 -65 255 -56 574 27 1003 53 275 167 771 314 1370 264 1078 358 1560 406
2094 18 194 6 707 -25 1071 -14 165 -35 419 -46 565 -63 805 -170 1317 -367
1749 -18 41 -32 76 -29 78 7 7 144 -163 199 -247 115 -179 194 -366 257 -614
76 -298 111 -590 152 -1246 16 -267 16 -1299 0 -1600 -47 -848 -129 -1643
-253 -2433 -37 -238 -61 -343 -159 -703 -136 -495 -172 -667 -190 -906 -25
-326 49 -619 208 -828 95 -125 275 -279 361 -308 86 -30 179 -3 289 82 80 62
250 239 301 315 123 180 167 366 137 570 -27 178 -65 271 -282 691 -152 294
-187 405 -205 649 -16 229 3 431 95 1016 77 483 78 494 116 1095 103 1651 74
2631 -106 3541 -129 657 -359 1302 -616 1728 -248 410 -624 730 -1089 925
-659 276 -1589 349 -2619 205 -418 -58 -681 -110 -1720 -343 -679 -151 -978
-206 -1415 -260 -657 -81 -1350 -108 -2470 -94 -740 8 -1306 30 -2085 78 -285
18 -347 19 -646 8 -367 -13 -525 -5 -669 34 -54 14 -164 64 -340 153 -293 150
-345 170 -535 213 -232 53 -356 66 -640 66 -342 0 -586 -30 -959 -120 -79 -18
-150 -34 -159 -34 -12 0 -14 10 -8 57 14 119 60 181 231 311 121 91 212 184
311 314 177 235 281 465 335 739 18 89 23 150 23 279 0 175 -10 264 -51 425
-201 806 -987 1512 -1848 1660 -112 19 -160 19 -205 -1z"/>
</g>
</svg>
